name rise43.5482peak65.4966fall89.1036.mot
datacolumns 19
datarows 15
range 17.13326000000000 17.15659300000000
endheader
time	ground_force1_vx	ground_force1_vy	ground_force1_vz	ground_force1_px	ground_force1_py	ground_force1_pz	ground_force2_vx	ground_force2_vy	ground_force2_vz	ground_force2_px	ground_force2_py	ground_force2_pz	ground_torque1_x	ground_torque1_y	ground_torque1_z	ground_torque2_x	ground_torque2_y	ground_torque2_z	
17.13326000000000	11.49973100000000	718.03557599999999	41.00874900000000	0.21609400000000	0.00000000000000	0.12356200000000	0.00000000000000	0.00000000000000	0.00000000000000	0.00000000000000	0.00000000000000	0.00000000000000	0.00000000000000	13.23281600000000	0.00000000000000	0.00000000000000	0.00000000000000	0.00000000000000	
17.13494100000000	11.05484700000000	718.85548200000005	40.97732000000000	0.21506300000000	0.00000000000000	0.12350100000000	0.00000000000000	0.00000000000000	0.00000000000000	0.00000000000000	0.00000000000000	0.00000000000000	0.00000000000000	13.27747900000000	0.00000000000000	0.00000000000000	0.00000000000000	0.00000000000000	
17.13659400000000	10.60103800000000	719.67813899999999	40.94930200000000	0.21401100000000	0.00000000000000	0.12344300000000	0.00000000000000	0.00000000000000	0.00000000000000	0.00000000000000	0.00000000000000	0.00000000000000	0.00000000000000	13.32516700000000	0.00000000000000	0.00000000000000	0.00000000000000	0.00000000000000	
17.13826400000000	10.13853900000000	720.50227900000004	40.92468500000000	0.21293900000000	0.00000000000000	0.12338500000000	0.00000000000000	0.00000000000000	0.00000000000000	0.00000000000000	0.00000000000000	0.00000000000000	0.00000000000000	13.37585700000000	0.00000000000000	0.00000000000000	0.00000000000000	0.00000000000000	
17.13994600000000	9.66761700000000	721.32672700000001	40.90346300000000	0.21184900000000	0.00000000000000	0.12332900000000	0.00000000000000	0.00000000000000	0.00000000000000	0.00000000000000	0.00000000000000	0.00000000000000	0.00000000000000	13.42952400000000	0.00000000000000	0.00000000000000	0.00000000000000	0.00000000000000	
17.14160100000000	9.18857100000000	722.15040999999997	40.88563100000000	0.21074300000000	0.00000000000000	0.12327400000000	0.00000000000000	0.00000000000000	0.00000000000000	0.00000000000000	0.00000000000000	0.00000000000000	0.00000000000000	13.48614000000000	0.00000000000000	0.00000000000000	0.00000000000000	0.00000000000000	
17.14326800000000	8.70172700000000	722.97235400000000	40.87118700000000	0.20962200000000	0.00000000000000	0.12322100000000	0.00000000000000	0.00000000000000	0.00000000000000	0.00000000000000	0.00000000000000	0.00000000000000	0.00000000000000	13.54567300000000	0.00000000000000	0.00000000000000	0.00000000000000	0.00000000000000	
17.14495100000000	8.20744000000000	723.79168500000003	40.86012800000000	0.20848800000000	0.00000000000000	0.12316800000000	0.00000000000000	0.00000000000000	0.00000000000000	0.00000000000000	0.00000000000000	0.00000000000000	0.00000000000000	13.60808700000000	0.00000000000000	0.00000000000000	0.00000000000000	0.00000000000000	
17.14659500000000	7.70608900000000	724.60762799999998	40.85245700000000	0.20734200000000	0.00000000000000	0.12311700000000	0.00000000000000	0.00000000000000	0.00000000000000	0.00000000000000	0.00000000000000	0.00000000000000	0.00000000000000	13.67334200000000	0.00000000000000	0.00000000000000	0.00000000000000	0.00000000000000	
17.14826200000000	7.19807500000000	725.41951100000006	40.84817200000000	0.20618600000000	0.00000000000000	0.12306700000000	0.00000000000000	0.00000000000000	0.00000000000000	0.00000000000000	0.00000000000000	0.00000000000000	0.00000000000000	13.74139300000000	0.00000000000000	0.00000000000000	0.00000000000000	0.00000000000000	
17.14993900000000	6.68382100000000	726.22676000000001	40.84727800000000	0.20502300000000	0.00000000000000	0.12301800000000	0.00000000000000	0.00000000000000	0.00000000000000	0.00000000000000	0.00000000000000	0.00000000000000	0.00000000000000	13.81219300000000	0.00000000000000	0.00000000000000	0.00000000000000	0.00000000000000	
17.15160100000000	6.16376600000000	727.02889800000003	40.84977500000000	0.20385400000000	0.00000000000000	0.12296900000000	0.00000000000000	0.00000000000000	0.00000000000000	0.00000000000000	0.00000000000000	0.00000000000000	0.00000000000000	13.88568700000000	0.00000000000000	0.00000000000000	0.00000000000000	0.00000000000000	
17.15326600000000	5.63836500000000	727.82554900000002	40.85566600000000	0.20268000000000	0.00000000000000	0.12292100000000	0.00000000000000	0.00000000000000	0.00000000000000	0.00000000000000	0.00000000000000	0.00000000000000	0.00000000000000	13.96181600000000	0.00000000000000	0.00000000000000	0.00000000000000	0.00000000000000	
17.15493700000000	5.10808800000000	728.61643000000004	40.86495300000000	0.20150300000000	0.00000000000000	0.12287400000000	0.00000000000000	0.00000000000000	0.00000000000000	0.00000000000000	0.00000000000000	0.00000000000000	0.00000000000000	14.04051900000000	0.00000000000000	0.00000000000000	0.00000000000000	0.00000000000000	
17.15659300000000	4.57341300000000	729.40135299999997	40.87764000000000	0.20032500000000	0.00000000000000	0.12282800000000	0.00000000000000	0.00000000000000	0.00000000000000	0.00000000000000	0.00000000000000	0.00000000000000	0.00000000000000	14.12172700000000	0.00000000000000	0.00000000000000	0.00000000000000	0.00000000000000	
